# xmcd
#
# Track frame offsets: 
#        150
#        23052
#        37370
#        54442
#        72512
#        84367
#        98655
#        116942
#        134417
#        151227
#        168477
#        186455
#        208712
#        224762
#        241187
#        259042
#        283960
#
# Disc length: 4088 seconds
#
# Revision: 8
# Processed by: cddbd v1.5.2PL0 Copyright (c) Steve Scherf et al.
# Submitted via: ExactAudioCopy v1.0b1
#
DISCID=080ff611
DTITLE=Louis Armstrong And Duke Ellington - The Great Reunion MFSL 807
DYEAR=2000
DGENRE=Jazz
TTITLE0=Duke's Place [Ellington-Roberts-Katz-Thiele]
TTITLE1=I'm Just A Lucky So And So [D. Ellington-M. David]
TTITLE2=Cottontail [Duke Ellington]
TTITLE3=Mood Indigo [Ellington-Bigard-Mills]
TTITLE4=Do Nothin' Till You Hear From Me [Ellington-Russell]
TTITLE5=The Beautiful American [Duke Ellington]
TTITLE6=Black And Tan Fantasy [B. Miley-D. Ellington]
TTITLE7=Drop Me Off In Harlem [D. Ellington-N. Kenny]
TTITLE8=The Mooche [D. Ellington-I. Mills]
TTITLE9=In A Mellow Tone [Duke Ellington]
TTITLE10=It Don't Mean A Thing (If It Ain't Got That Swing) [D. Elling
TTITLE10=ton-I. Mills]
TTITLE11=Solitude [Ellington-DeLange-Mills]
TTITLE12=Don't Get Around Much Anymore [D. Ellington-B. Russell]
TTITLE13=I'm Beginning To See The Light [Ellington-Hodges-James-George
TTITLE13=]
TTITLE14=Just Squeeze Me [D. Ellington-L. Gaines]
TTITLE15=I Got It Bad (And That Ain't Good) [D. Ellington-P.F. Webster
TTITLE15=]
TTITLE16=Azalea [Duke Ellington]
EXTD=Original session produced by Bob Thiele\nRecorded at RCA Studios,
EXTD=New York City, on april 3 and 4, 1961.\n\nLuis Armstrong - trump
EXTD=et, vocals\nDuke Ellington - piano\nTrummy Young - trombone\nBarn
EXTD=ey Bigard - clarinet\nMort Herbert - bass\nDanny Barcelona - drum
EXTD=s YEAR: 2000
EXTT0=
EXTT1=
EXTT2=
EXTT3=
EXTT4=
EXTT5=
EXTT6=
EXTT7=
EXTT8=
EXTT9=
EXTT10=
EXTT11=
EXTT12=
EXTT13=
EXTT14=
EXTT15=
EXTT16=
PLAYORDER=
